<?xml version="1.0" encoding="UTF-8" standalone="no"?>
<!DOCTYPE svg PUBLIC "-//W3C//DTD SVG 1.1//EN" "http://www.w3.org/Graphics/SVG/1.1/DTD/svg11.dtd">
<svg width="100%" height="100%" viewBox="0 0 298 298" version="1.1" xmlns="http://www.w3.org/2000/svg" xmlns:xlink="http://www.w3.org/1999/xlink" xml:space="preserve" xmlns:serif="http://www.serif.com/" style="fill-rule:evenodd;clip-rule:evenodd;stroke-linejoin:round;stroke-miterlimit:2;">
    <g transform="matrix(1.35451,0,0,1.35451,-28.1528,-38.3099)">
        <clipPath id="_clip1">
            <rect x="20.784" y="53.385" width="219.716" height="178.662"/>
        </clipPath>
        <g clip-path="url(#_clip1)">
            <path d="M143,257L1,257C1,171.667 1,86.333 1,1C86.333,1 171.667,1 257,1L257,257C219.167,257 181.333,257 143,257M223.787,133.096C220.456,133.085 217.093,133.365 213.803,132.994C208.776,132.428 205.095,134.265 201.324,137.545C185.618,151.202 169.638,164.544 153.745,177.987C152.707,178.865 151.559,179.615 149.987,180.775C149.987,170.463 149.946,160.975 150.009,151.488C150.03,148.339 149.907,144.725 146.302,144.359C144.107,144.136 140.966,145.917 139.422,147.772C127.815,161.723 116.504,175.919 105.089,190.029C104.034,191.332 102.9,192.572 100.925,194.859L100.925,96.928C99.092,98.452 97.846,99.461 96.63,100.503C85.126,110.367 73.709,120.336 62.045,130.005C60.094,131.623 57.11,132.594 54.537,132.748C47.404,133.175 40.235,133.013 32.149,132.924L20.631,132.924L20.631,234.906C56.737,234.906 92.511,234.906 128.812,235.104C129.176,235.035 129.539,234.966 130.845,235.067L240.866,235.067L240.866,133.291C235.368,133.291 230.088,133.291 223.787,133.096M160.072,50.94C139.053,50.995 118.033,51.05 96.227,50.912C90.147,50.974 84.068,51.036 77.063,50.936L20.525,50.936L20.525,120.197C21.194,120.407 21.65,120.673 22.107,120.673C24.428,120.67 26.748,120.597 29.961,120.818C36.785,120.838 43.62,121.084 50.426,120.755C52.827,120.639 55.634,119.678 57.451,118.147C74.632,103.672 91.638,88.989 108.697,74.369C109.901,73.338 111.127,72.332 113.145,70.642L113.145,160.961C119.855,152.683 125.608,145.442 131.52,138.335C136.391,132.478 143.694,130.435 150.37,132.795C157.396,135.279 161.75,141.419 161.969,149.2C162.018,150.919 161.977,152.641 161.977,155.301C175.025,144.259 187.122,133.88 199.431,123.757C201.273,122.242 204.073,121.312 206.489,121.179C213.951,120.766 221.441,120.87 229.857,120.897L240.728,120.897L240.728,51.104C220.251,51.104 200.138,51.104 179.238,50.928C178.008,51.197 176.773,51.716 175.549,51.69C170.697,51.588 165.848,51.314 160.072,50.94Z" style="fill:rgb(254,254,254);fill-rule:nonzero;"/>
        </g>
    </g>
    <g transform="matrix(1.35451,0,0,1.35451,-28.1528,-38.3099)">
        <path d="M77.988,51.098C84.068,51.036 90.147,50.974 96.845,51.307C109.596,53.706 119.917,59.4 129.26,67.86C138.195,58.777 149.27,54.298 160.999,51.104C165.848,51.314 170.697,51.588 175.549,51.69C176.773,51.716 178.008,51.197 179.862,51.315C192.316,53.675 202.633,58.76 211.232,67.097C226.471,81.872 231.876,99.964 228.92,120.773C221.441,120.87 213.951,120.766 206.489,121.179C204.073,121.312 201.273,122.242 199.431,123.757C187.122,133.88 175.025,144.259 161.977,155.301C161.977,152.641 162.018,150.919 161.969,149.2C161.75,141.419 157.396,135.279 150.37,132.795C143.694,130.435 136.391,132.478 131.52,138.335C125.608,145.442 119.855,152.683 113.145,160.961L113.145,70.642C111.127,72.332 109.901,73.338 108.697,74.369C91.638,88.989 74.632,103.672 57.451,118.147C55.634,119.678 52.827,120.639 50.426,120.755C43.62,121.084 36.785,120.838 29.495,120.273C28.937,118.405 28.86,117.08 28.75,115.758C26.913,93.66 34.642,75.423 52.551,62.602C59.973,57.29 69.447,54.846 77.988,51.098Z" style="fill:rgb(223,20,64);fill-rule:nonzero;"/>
    </g>
    <g transform="matrix(1.35451,0,0,1.35451,-28.1528,-38.3099)">
        <path d="M129.902,234.897C129.539,234.966 129.176,235.035 128.4,234.693C100.83,207.087 73.503,180.057 46.655,152.558C41.202,146.973 37.558,139.621 33.08,133.084C40.235,133.013 47.404,133.175 54.537,132.748C57.11,132.594 60.094,131.623 62.045,130.005C73.709,120.336 85.126,110.367 96.63,100.503C97.846,99.461 99.092,98.452 100.925,96.928L100.925,194.859C102.9,192.572 104.034,191.332 105.089,190.029C116.504,175.919 127.815,161.723 139.422,147.772C140.966,145.917 144.107,144.136 146.302,144.359C149.907,144.725 150.03,148.339 150.009,151.488C149.946,160.975 149.987,170.463 149.987,180.775C151.559,179.615 152.707,178.865 153.745,177.987C169.638,164.544 185.618,151.202 201.324,137.545C205.095,134.265 208.776,132.428 213.803,132.994C217.093,133.365 220.456,133.085 224.178,133.557C220.207,140.248 216.596,147.212 211.354,152.582C185.541,179.019 159.293,205.031 133.211,231.206C132.047,232.374 131.003,233.664 129.902,234.897Z" style="fill:rgb(222,20,64);fill-rule:nonzero;"/>
    </g>
</svg>
